# xmcd
#
# Track frame offsets: 
#        150
#        21254
#        35629
#        54040
#        70530
#        81533
#        102322
#        119047
#        127841
#        145221
#
# Disc length: 2098 seconds
#
# Revision: 1
# Processed by: cddbd v1.5.2PL0 Copyright (c) Steve Scherf et al.
# Submitted via: ExactAudioCopy v0.99pb5
#
DISCID=8708300a
DTITLE=Various Artist - Classic Country Christmas
DYEAR=2007
DGENRE=Country
TTITLE0=Lonestar - Little Drummer Boy
TTITLE1=Kenny Chesney - Thank God For Kids
TTITLE2=Montgomery Gentry - Merry Xmas From the Family
TTITLE3=Patty Loveless - Xmas Tome's A Comin"
TTITLE4=Willie Nelson - Pretty Paper
TTITLE5=Kenny Rogers - O Holly Night
TTITLE6=Leann Rimes - A Different Kind Of Xmas
TTITLE7=Elvis Presley - Here Comes Santa Clause
TTITLE8=Alison Krauss - Jesus Help Me Stand
TTITLE9=Brooks and Dunn - I'll Be Home for Xmas
EXTD=
EXTT0=
EXTT1=
EXTT2=
EXTT3=
EXTT4=
EXTT5=
EXTT6=
EXTT7=
EXTT8=
EXTT9=
PLAYORDER=
